<svg xmlns="http://www.w3.org/2000/svg" xmlns:xlink="http://www.w3.org/1999/xlink" width="36.507" height="27.217" viewBox="0 0 36.507 27.217">
  <defs>
    <clipPath id="clip-path">
      <rect id="Rectangle_48" data-name="Rectangle 48" width="33.23" height="21.778" fill="none"/>
    </clipPath>
    <clipPath id="clip-path-2">
      <rect id="Rectangle_47" data-name="Rectangle 47" width="33.23" height="21.777" fill="none"/>
    </clipPath>
    <clipPath id="clip-path-3">
      <rect id="Rectangle_44" data-name="Rectangle 44" width="3.958" height="11.237" fill="none"/>
    </clipPath>
    <clipPath id="clip-path-4">
      <rect id="Rectangle_45" data-name="Rectangle 45" width="24.006" height="8.848" fill="none"/>
    </clipPath>
    <clipPath id="clip-path-5">
      <rect id="Rectangle_46" data-name="Rectangle 46" width="6.058" height="5.063" fill="none"/>
    </clipPath>
  </defs>
  <g id="christmas-hat" transform="matrix(0.985, -0.174, 0.174, 0.985, 0, 5.77)">
    <g id="Group_73" data-name="Group 73" clip-path="url(#clip-path)">
      <g id="Group_72" data-name="Group 72" transform="translate(0 0)">
        <g id="Group_71" data-name="Group 71" clip-path="url(#clip-path-2)">
          <path id="Path_14" data-name="Path 14" d="M36.372,10.521C30.68-2.442,15.306-3.763,9.545,8.436A51.235,51.235,0,0,0,7.182,16.22l1.182,1.042s2.293-2.919,3.892-4.657A20.37,20.37,0,0,1,15,10.153c.4-.3.656-.465.656-.465-.129,1.91-.268,9.846,1.459,9.1Z" transform="translate(-5.514 0)" fill="#d40e14" fill-rule="evenodd"/>
          <g id="Group_64" data-name="Group 64" transform="translate(10.077 7.603)" opacity="0.5">
            <g id="Group_63" data-name="Group 63">
              <g id="Group_62" data-name="Group 62" clip-path="url(#clip-path-3)">
                <path id="Path_15" data-name="Path 15" d="M43.463,34.831a23.894,23.894,0,0,1,3.775-2.069c.819-.322-3.148,3.163-.2,10.261l-2.112.907c-1.726.741-1.588-7.181-1.46-9.1" transform="translate(-43.394 -32.742)" fill="#8c0004" fill-rule="evenodd"/>
              </g>
            </g>
          </g>
          <path id="Path_16" data-name="Path 16" d="M40.06,40.414c-1.388,1.519.667,6.268,2.882,5.9,5.448-.9,15.073-3.738,19.516-6.668,2.308-1.522.918-6.6-1.459-7.57-2.317-.945-18.534,5.7-20.94,8.334" transform="translate(-30.41 -24.56)" fill="#fff" fill-rule="evenodd"/>
          <g id="Group_67" data-name="Group 67" transform="translate(9.198 12.93)" opacity="0.2">
            <g id="Group_66" data-name="Group 66">
              <g id="Group_65" data-name="Group 65" clip-path="url(#clip-path-4)">
                <path id="Path_17" data-name="Path 17" d="M63.614,55.677c-5,2.909-15.564,6.453-20.173,6.662-1.477.067-2.757-1.717-3.36-3.759l-.021.022c-1.388,1.519.667,6.268,2.882,5.9,5.448-.9,15.073-3.738,19.516-6.668a2.823,2.823,0,0,0,1.155-2.16" transform="translate(-39.608 -55.677)" fill="#181714" fill-rule="evenodd"/>
              </g>
            </g>
          </g>
          <path id="Path_18" data-name="Path 18" d="M3.058,61.806a3.164,3.164,0,0,1,0-6.324,3.164,3.164,0,0,1,0,6.324" transform="translate(0 -42.598)" fill="#fff" fill-rule="evenodd"/>
          <g id="Group_70" data-name="Group 70" transform="translate(0 14.146)" opacity="0.2">
            <g id="Group_69" data-name="Group 69">
              <g id="Group_68" data-name="Group 68" clip-path="url(#clip-path-5)">
                <path id="Path_19" data-name="Path 19" d="M.614,60.916A3.218,3.218,0,0,0,0,62.817a3.112,3.112,0,0,0,3.058,3.162,3.088,3.088,0,0,0,3-2.548,3.021,3.021,0,0,1-2.444,1.262A3.112,3.112,0,0,1,.556,61.531a3.286,3.286,0,0,1,.058-.615" transform="translate(0 -60.916)" fill="#181714" fill-rule="evenodd"/>
              </g>
            </g>
          </g>
        </g>
      </g>
    </g>
  </g>
</svg>
