<svg id="icon-info-i" xmlns="http://www.w3.org/2000/svg" width="29.305" height="29.305" viewBox="0 0 29.305 29.305">
  <g id="Gruppe_43" data-name="Gruppe 43">
    <g id="Gruppe_42" data-name="Gruppe 42">
      <path id="Pfad_9" data-name="Pfad 9" d="M14.653,0A14.653,14.653,0,1,0,29.305,14.653,14.644,14.644,0,0,0,14.653,0Zm0,27.261A12.608,12.608,0,1,1,27.261,14.653,12.622,12.622,0,0,1,14.653,27.261Z" fill="#092a5e"/>
    </g>
  </g>
  <g id="Gruppe_45" data-name="Gruppe 45" transform="translate(13.168 12.214)">
    <g id="Gruppe_44" data-name="Gruppe 44">
      <path id="Pfad_10" data-name="Pfad 10" d="M231.544,213.4c-.868,0-1.485.367-1.485.907v7.348c0,.463.617.926,1.485.926.829,0,1.5-.463,1.5-.926V214.3C233.048,213.763,232.373,213.4,231.544,213.4Z" transform="translate(-230.059 -213.397)" fill="#092a5e"/>
    </g>
  </g>
  <g id="Gruppe_47" data-name="Gruppe 47" transform="translate(13.071 7.682)">
    <g id="Gruppe_46" data-name="Gruppe 46">
      <path id="Pfad_11" data-name="Pfad 11" d="M229.956,134.208a1.39,1.39,0,1,0,1.562,1.369A1.494,1.494,0,0,0,229.956,134.208Z" transform="translate(-228.375 -134.208)" fill="#092a5e"/>
    </g>
  </g>
</svg>
