<svg xmlns="http://www.w3.org/2000/svg" xmlns:xlink="http://www.w3.org/1999/xlink" width="354" height="36" viewBox="0 0 354 36">
  <defs>
    <clipPath id="clip-path">
      <rect id="Rechteck_50" data-name="Rechteck 50" width="354" height="36" transform="translate(10 499)" fill="#fff"/>
    </clipPath>
    <clipPath id="clip-path-2">
      <rect id="Rechteck_49" data-name="Rechteck 49" width="491.116" height="31.667" transform="translate(0 0)" fill="none"/>
    </clipPath>
  </defs>
  <g id="weihnachtsleiste" transform="translate(-10 -499)" clip-path="url(#clip-path)">
    <g id="Gruppe_76" data-name="Gruppe 76" transform="translate(-58 501.333)">
      <g id="Gruppe_75" data-name="Gruppe 75" clip-path="url(#clip-path-2)">
        <path id="Pfad_20" data-name="Pfad 20" d="M285.707,3.708c1.264,1.6-14.2,13.52-15.307,12.124S284.443,2.113,285.707,3.708" fill="#09310c"/>
        <path id="Pfad_21" data-name="Pfad 21" d="M273.374,26.307c1.264-1.595-14.2-13.52-15.307-12.123S272.11,27.9,273.374,26.307" fill="#09310c"/>
        <path id="Pfad_22" data-name="Pfad 22" d="M303.225,19.261c.438-1.179-10.93-5.233-11.313-4.2s10.875,5.382,11.313,4.2" fill="#09310c"/>
        <path id="Pfad_23" data-name="Pfad 23" d="M266.272,26.307c1.264-1.595-14.2-13.52-15.307-12.123S265.008,27.9,266.272,26.307" fill="#19590f"/>
        <path id="Pfad_24" data-name="Pfad 24" d="M267.505,3.708c1.264,1.6-14.2,13.52-15.307,12.124S266.241,2.113,267.505,3.708" fill="#19590f"/>
        <path id="Pfad_25" data-name="Pfad 25" d="M285.707,26.307c1.264-1.595-14.2-13.52-15.307-12.123S284.443,27.9,285.707,26.307" fill="#53863c"/>
        <path id="Pfad_26" data-name="Pfad 26" d="M274.607,3.708c1.264,1.6-14.2,13.52-15.307,12.124S273.343,2.113,274.607,3.708" fill="#53863c"/>
        <path id="Pfad_27" data-name="Pfad 27" d="M260.723,26.307c1.264-1.595-14.2-13.52-15.307-12.123S259.459,27.9,260.723,26.307" fill="#09310c"/>
        <path id="Pfad_28" data-name="Pfad 28" d="M261.956,3.708c1.264,1.6-14.2,13.52-15.307,12.124S260.692,2.113,261.956,3.708" fill="#09310c"/>
        <path id="Pfad_29" data-name="Pfad 29" d="M298.386,22.766c1.015-1.282-11.41-10.862-12.3-9.741s11.283,11.023,12.3,9.741" fill="#53863c"/>
        <path id="Pfad_30" data-name="Pfad 30" d="M295.238,23.9c1.015-1.282-11.41-10.862-12.3-9.741s11.283,11.023,12.3,9.741" fill="#53863c"/>
        <path id="Pfad_31" data-name="Pfad 31" d="M300.01,7.234c.989,1.249-11.11,10.577-11.975,9.485S299.022,5.986,300.01,7.234" fill="#53863c"/>
        <path id="Pfad_32" data-name="Pfad 32" d="M294.679,5.821c.988,1.248-11.11,10.577-11.975,9.485S293.69,4.573,294.679,5.821" fill="#53863c"/>
        <path id="Pfad_33" data-name="Pfad 33" d="M306.569,15.008c0-3.083-66.673-2.7-66.673,0s66.673,3.083,66.673,0" fill="#19590f"/>
        <path id="Pfad_34" data-name="Pfad 34" d="M290.937,25.37c1.264-1.6-14.2-13.52-15.307-12.124s14.043,13.719,15.307,12.124" fill="#19590f"/>
        <path id="Pfad_35" data-name="Pfad 35" d="M292.17,2.77c1.264,1.595-14.2,13.52-15.307,12.124S290.906,1.175,292.17,2.77" fill="#19590f"/>
        <path id="Pfad_36" data-name="Pfad 36" d="M278.6,26.307c1.264-1.595-14.2-13.52-15.307-12.123S277.34,27.9,278.6,26.307" fill="#19590f"/>
        <path id="Pfad_37" data-name="Pfad 37" d="M279.837,3.708c1.264,1.6-14.2,13.52-15.307,12.124S278.573,2.113,279.837,3.708" fill="#19590f"/>
        <path id="Pfad_38" data-name="Pfad 38" d="M304.68,10.754c.438,1.179-10.93,5.234-11.313,4.2s10.875-5.381,11.313-4.2" fill="#19590f"/>
        <path id="Pfad_39" data-name="Pfad 39" d="M322.616,3.708c1.264,1.6-14.2,13.52-15.307,12.124S321.352,2.113,322.616,3.708" fill="#09310c"/>
        <path id="Pfad_40" data-name="Pfad 40" d="M310.284,26.307c1.264-1.595-14.2-13.52-15.307-12.123S309.02,27.9,310.284,26.307" fill="#09310c"/>
        <path id="Pfad_41" data-name="Pfad 41" d="M340.135,19.261c.438-1.179-10.93-5.233-11.313-4.2s10.875,5.382,11.313,4.2" fill="#09310c"/>
        <path id="Pfad_42" data-name="Pfad 42" d="M303.181,26.307c1.264-1.595-14.2-13.52-15.307-12.123S301.917,27.9,303.181,26.307" fill="#19590f"/>
        <path id="Pfad_43" data-name="Pfad 43" d="M304.414,3.708c1.264,1.6-14.2,13.52-15.307,12.124S303.15,2.113,304.414,3.708" fill="#19590f"/>
        <path id="Pfad_44" data-name="Pfad 44" d="M322.616,26.307c1.264-1.595-14.2-13.52-15.307-12.123S321.352,27.9,322.616,26.307" fill="#53863c"/>
        <path id="Pfad_45" data-name="Pfad 45" d="M311.517,3.708c1.263,1.6-14.2,13.52-15.307,12.124S310.253,2.113,311.517,3.708" fill="#53863c"/>
        <path id="Pfad_46" data-name="Pfad 46" d="M297.633,26.307c1.264-1.595-14.2-13.52-15.307-12.123S296.369,27.9,297.633,26.307" fill="#09310c"/>
        <path id="Pfad_47" data-name="Pfad 47" d="M298.865,3.708c1.264,1.6-14.2,13.52-15.307,12.124S297.6,2.113,298.865,3.708" fill="#09310c"/>
        <path id="Pfad_48" data-name="Pfad 48" d="M335.3,22.766c1.015-1.282-11.41-10.862-12.3-9.741s11.283,11.023,12.3,9.741" fill="#53863c"/>
        <path id="Pfad_49" data-name="Pfad 49" d="M332.148,23.9c1.015-1.282-11.41-10.862-12.3-9.741s11.283,11.023,12.3,9.741" fill="#53863c"/>
        <path id="Pfad_50" data-name="Pfad 50" d="M336.92,7.234c.988,1.249-11.11,10.577-11.975,9.485S335.931,5.986,336.92,7.234" fill="#53863c"/>
        <path id="Pfad_51" data-name="Pfad 51" d="M331.589,5.821c.989,1.248-11.11,10.577-11.975,9.485S330.6,4.573,331.589,5.821" fill="#53863c"/>
        <path id="Pfad_52" data-name="Pfad 52" d="M343.478,15.008c0-3.083-66.673-2.7-66.673,0s66.673,3.083,66.673,0" fill="#19590f"/>
        <path id="Pfad_53" data-name="Pfad 53" d="M327.846,25.37c1.264-1.6-14.2-13.52-15.307-12.124s14.043,13.719,15.307,12.124" fill="#19590f"/>
        <path id="Pfad_54" data-name="Pfad 54" d="M329.079,2.77c1.264,1.595-14.2,13.52-15.307,12.124S327.815,1.175,329.079,2.77" fill="#19590f"/>
        <path id="Pfad_55" data-name="Pfad 55" d="M315.514,26.307c1.264-1.595-14.2-13.52-15.307-12.123S314.25,27.9,315.514,26.307" fill="#19590f"/>
        <path id="Pfad_56" data-name="Pfad 56" d="M316.747,3.708c1.264,1.6-14.2,13.52-15.307,12.124S315.483,2.113,316.747,3.708" fill="#19590f"/>
        <path id="Pfad_57" data-name="Pfad 57" d="M341.589,10.754c.438,1.179-10.93,5.234-11.313,4.2s10.875-5.381,11.313-4.2" fill="#19590f"/>
        <path id="Pfad_58" data-name="Pfad 58" d="M359.526,3.708c1.264,1.6-14.2,13.52-15.307,12.124S358.262,2.113,359.526,3.708" fill="#09310c"/>
        <path id="Pfad_59" data-name="Pfad 59" d="M347.193,26.307c1.264-1.595-14.2-13.52-15.307-12.123S345.929,27.9,347.193,26.307" fill="#09310c"/>
        <path id="Pfad_60" data-name="Pfad 60" d="M377.044,19.261c.438-1.179-10.93-5.233-11.313-4.2s10.875,5.382,11.313,4.2" fill="#09310c"/>
        <path id="Pfad_61" data-name="Pfad 61" d="M340.091,26.307c1.264-1.595-14.2-13.52-15.307-12.123S338.827,27.9,340.091,26.307" fill="#19590f"/>
        <path id="Pfad_62" data-name="Pfad 62" d="M341.323,3.708c1.264,1.6-14.2,13.52-15.307,12.124S340.059,2.113,341.323,3.708" fill="#19590f"/>
        <path id="Pfad_63" data-name="Pfad 63" d="M359.526,26.307c1.264-1.595-14.2-13.52-15.307-12.123S358.262,27.9,359.526,26.307" fill="#53863c"/>
        <path id="Pfad_64" data-name="Pfad 64" d="M348.426,3.708c1.264,1.6-14.2,13.52-15.307,12.124S347.162,2.113,348.426,3.708" fill="#53863c"/>
        <path id="Pfad_65" data-name="Pfad 65" d="M334.542,26.307c1.264-1.595-14.2-13.52-15.307-12.123S333.278,27.9,334.542,26.307" fill="#09310c"/>
        <path id="Pfad_66" data-name="Pfad 66" d="M335.775,3.708c1.264,1.6-14.2,13.52-15.307,12.124S334.511,2.113,335.775,3.708" fill="#09310c"/>
        <path id="Pfad_67" data-name="Pfad 67" d="M372.2,22.766c1.015-1.282-11.41-10.862-12.3-9.741s11.283,11.023,12.3,9.741" fill="#53863c"/>
        <path id="Pfad_68" data-name="Pfad 68" d="M369.057,23.9c1.015-1.282-11.41-10.862-12.3-9.741s11.283,11.023,12.3,9.741" fill="#53863c"/>
        <path id="Pfad_69" data-name="Pfad 69" d="M373.829,7.234c.989,1.249-11.11,10.577-11.975,9.485S372.84,5.986,373.829,7.234" fill="#53863c"/>
        <path id="Pfad_70" data-name="Pfad 70" d="M368.5,5.821c.989,1.248-11.11,10.577-11.975,9.485S367.51,4.573,368.5,5.821" fill="#53863c"/>
        <path id="Pfad_71" data-name="Pfad 71" d="M380.388,15.008c0-3.083-66.673-2.7-66.673,0s66.673,3.083,66.673,0" fill="#19590f"/>
        <path id="Pfad_72" data-name="Pfad 72" d="M364.756,25.37c1.264-1.6-14.2-13.52-15.307-12.124s14.043,13.719,15.307,12.124" fill="#19590f"/>
        <path id="Pfad_73" data-name="Pfad 73" d="M365.989,2.77c1.264,1.595-14.2,13.52-15.307,12.124S364.725,1.175,365.989,2.77" fill="#19590f"/>
        <path id="Pfad_74" data-name="Pfad 74" d="M352.423,26.307c1.264-1.595-14.2-13.52-15.307-12.123S351.159,27.9,352.423,26.307" fill="#19590f"/>
        <path id="Pfad_75" data-name="Pfad 75" d="M353.656,3.708c1.264,1.6-14.2,13.52-15.307,12.124S352.392,2.113,353.656,3.708" fill="#19590f"/>
        <path id="Pfad_76" data-name="Pfad 76" d="M378.5,10.754c.437,1.179-10.931,5.234-11.314,4.2s10.875-5.381,11.314-4.2" fill="#19590f"/>
        <path id="Pfad_77" data-name="Pfad 77" d="M396.435,3.708c1.264,1.6-14.2,13.52-15.307,12.124S395.171,2.113,396.435,3.708" fill="#09310c"/>
        <path id="Pfad_78" data-name="Pfad 78" d="M384.1,26.307c1.264-1.595-14.2-13.52-15.307-12.123S382.839,27.9,384.1,26.307" fill="#09310c"/>
        <path id="Pfad_79" data-name="Pfad 79" d="M413.953,19.261c.438-1.179-10.93-5.233-11.313-4.2s10.875,5.382,11.313,4.2" fill="#09310c"/>
        <path id="Pfad_80" data-name="Pfad 80" d="M377,26.307c1.264-1.595-14.2-13.52-15.307-12.123S375.736,27.9,377,26.307" fill="#19590f"/>
        <path id="Pfad_81" data-name="Pfad 81" d="M378.233,3.708c1.264,1.6-14.2,13.52-15.307,12.124S376.969,2.113,378.233,3.708" fill="#19590f"/>
        <path id="Pfad_82" data-name="Pfad 82" d="M396.435,26.307c1.264-1.595-14.2-13.52-15.307-12.123S395.171,27.9,396.435,26.307" fill="#53863c"/>
        <path id="Pfad_83" data-name="Pfad 83" d="M385.335,3.708c1.264,1.6-14.2,13.52-15.307,12.124S384.071,2.113,385.335,3.708" fill="#53863c"/>
        <path id="Pfad_84" data-name="Pfad 84" d="M371.452,26.307c1.263-1.595-14.2-13.52-15.307-12.123S370.188,27.9,371.452,26.307" fill="#09310c"/>
        <path id="Pfad_85" data-name="Pfad 85" d="M372.684,3.708c1.264,1.6-14.2,13.52-15.307,12.124S371.42,2.113,372.684,3.708" fill="#09310c"/>
        <path id="Pfad_86" data-name="Pfad 86" d="M409.114,22.766c1.015-1.282-11.41-10.862-12.3-9.741s11.283,11.023,12.3,9.741" fill="#53863c"/>
        <path id="Pfad_87" data-name="Pfad 87" d="M405.967,23.9c1.015-1.282-11.41-10.862-12.3-9.741s11.283,11.023,12.3,9.741" fill="#53863c"/>
        <path id="Pfad_88" data-name="Pfad 88" d="M410.739,7.234c.989,1.249-11.11,10.577-11.975,9.485S409.75,5.986,410.739,7.234" fill="#53863c"/>
        <path id="Pfad_89" data-name="Pfad 89" d="M405.408,5.821c.988,1.248-11.11,10.577-11.975,9.485s10.986-10.733,11.975-9.485" fill="#53863c"/>
        <path id="Pfad_90" data-name="Pfad 90" d="M417.3,15.008c0-3.083-66.673-2.7-66.673,0s66.673,3.083,66.673,0" fill="#19590f"/>
        <path id="Pfad_91" data-name="Pfad 91" d="M401.665,25.37c1.264-1.6-14.2-13.52-15.307-12.124S400.4,26.965,401.665,25.37" fill="#19590f"/>
        <path id="Pfad_92" data-name="Pfad 92" d="M402.9,2.77c1.264,1.595-14.2,13.52-15.307,12.124S401.634,1.175,402.9,2.77" fill="#19590f"/>
        <path id="Pfad_93" data-name="Pfad 93" d="M389.333,26.307c1.264-1.595-14.2-13.52-15.307-12.123S388.069,27.9,389.333,26.307" fill="#19590f"/>
        <path id="Pfad_94" data-name="Pfad 94" d="M390.565,3.708c1.264,1.6-14.2,13.52-15.307,12.124S389.3,2.113,390.565,3.708" fill="#19590f"/>
        <path id="Pfad_95" data-name="Pfad 95" d="M415.408,10.754c.438,1.179-10.93,5.234-11.313,4.2s10.875-5.381,11.313-4.2" fill="#19590f"/>
        <path id="Pfad_96" data-name="Pfad 96" d="M433.345,3.708c1.264,1.6-14.2,13.52-15.307,12.124S432.081,2.113,433.345,3.708" fill="#09310c"/>
        <path id="Pfad_97" data-name="Pfad 97" d="M421.012,26.307c1.264-1.595-14.2-13.52-15.307-12.123S419.748,27.9,421.012,26.307" fill="#09310c"/>
        <path id="Pfad_98" data-name="Pfad 98" d="M450.863,19.261c.438-1.179-10.93-5.233-11.313-4.2s10.875,5.382,11.313,4.2" fill="#09310c"/>
        <path id="Pfad_99" data-name="Pfad 99" d="M413.91,26.307c1.264-1.595-14.2-13.52-15.307-12.123S412.646,27.9,413.91,26.307" fill="#19590f"/>
        <path id="Pfad_100" data-name="Pfad 100" d="M415.142,3.708c1.264,1.6-14.2,13.52-15.307,12.124S413.878,2.113,415.142,3.708" fill="#19590f"/>
        <path id="Pfad_101" data-name="Pfad 101" d="M433.345,26.307c1.264-1.595-14.2-13.52-15.307-12.123S432.081,27.9,433.345,26.307" fill="#53863c"/>
        <path id="Pfad_102" data-name="Pfad 102" d="M422.245,3.708c1.264,1.6-14.2,13.52-15.307,12.124S420.981,2.113,422.245,3.708" fill="#53863c"/>
        <path id="Pfad_103" data-name="Pfad 103" d="M408.361,26.307c1.264-1.595-14.2-13.52-15.307-12.123S407.1,27.9,408.361,26.307" fill="#09310c"/>
        <path id="Pfad_104" data-name="Pfad 104" d="M409.594,3.708c1.264,1.6-14.2,13.52-15.307,12.124S408.33,2.113,409.594,3.708" fill="#09310c"/>
        <path id="Pfad_105" data-name="Pfad 105" d="M446.023,22.766c1.015-1.282-11.41-10.862-12.3-9.741s11.283,11.023,12.3,9.741" fill="#53863c"/>
        <path id="Pfad_106" data-name="Pfad 106" d="M442.876,23.9c1.015-1.282-11.41-10.862-12.3-9.741s11.283,11.023,12.3,9.741" fill="#53863c"/>
        <path id="Pfad_107" data-name="Pfad 107" d="M447.648,7.234c.989,1.249-11.11,10.577-11.975,9.485s10.986-10.733,11.975-9.485" fill="#53863c"/>
        <path id="Pfad_108" data-name="Pfad 108" d="M442.317,5.821c.989,1.248-11.11,10.577-11.975,9.485s10.987-10.733,11.975-9.485" fill="#53863c"/>
        <path id="Pfad_109" data-name="Pfad 109" d="M454.207,15.008c0-3.083-66.673-2.7-66.673,0s66.673,3.083,66.673,0" fill="#19590f"/>
        <path id="Pfad_110" data-name="Pfad 110" d="M438.575,25.37c1.264-1.6-14.2-13.52-15.307-12.124s14.043,13.719,15.307,12.124" fill="#19590f"/>
        <path id="Pfad_111" data-name="Pfad 111" d="M439.807,2.77c1.264,1.595-14.2,13.52-15.307,12.124S438.543,1.175,439.807,2.77" fill="#19590f"/>
        <path id="Pfad_112" data-name="Pfad 112" d="M426.242,26.307c1.264-1.595-14.2-13.52-15.307-12.123S424.978,27.9,426.242,26.307" fill="#19590f"/>
        <path id="Pfad_113" data-name="Pfad 113" d="M427.475,3.708c1.264,1.6-14.2,13.52-15.307,12.124S426.211,2.113,427.475,3.708" fill="#19590f"/>
        <path id="Pfad_114" data-name="Pfad 114" d="M452.317,10.754c.438,1.179-10.93,5.234-11.313,4.2s10.875-5.381,11.313-4.2" fill="#19590f"/>
        <path id="Pfad_115" data-name="Pfad 115" d="M470.254,3.708c1.264,1.6-14.2,13.52-15.307,12.124S468.99,2.113,470.254,3.708" fill="#09310c"/>
        <path id="Pfad_116" data-name="Pfad 116" d="M457.922,26.307c1.264-1.595-14.2-13.52-15.307-12.123S456.658,27.9,457.922,26.307" fill="#09310c"/>
        <path id="Pfad_117" data-name="Pfad 117" d="M487.772,19.261c.438-1.179-10.93-5.233-11.313-4.2s10.875,5.382,11.313,4.2" fill="#09310c"/>
        <path id="Pfad_118" data-name="Pfad 118" d="M450.819,26.307c1.264-1.595-14.2-13.52-15.307-12.123S449.555,27.9,450.819,26.307" fill="#19590f"/>
        <path id="Pfad_119" data-name="Pfad 119" d="M452.052,3.708c1.264,1.6-14.2,13.52-15.307,12.124S450.788,2.113,452.052,3.708" fill="#19590f"/>
        <path id="Pfad_120" data-name="Pfad 120" d="M470.254,26.307c1.264-1.595-14.2-13.52-15.307-12.123S468.99,27.9,470.254,26.307" fill="#53863c"/>
        <path id="Pfad_121" data-name="Pfad 121" d="M459.154,3.708c1.264,1.6-14.2,13.52-15.307,12.124S457.89,2.113,459.154,3.708" fill="#53863c"/>
        <path id="Pfad_122" data-name="Pfad 122" d="M445.27,26.307c1.264-1.595-14.2-13.52-15.307-12.123S444.006,27.9,445.27,26.307" fill="#09310c"/>
        <path id="Pfad_123" data-name="Pfad 123" d="M446.5,3.708c1.264,1.6-14.2,13.52-15.307,12.124S445.239,2.113,446.5,3.708" fill="#09310c"/>
        <path id="Pfad_124" data-name="Pfad 124" d="M482.933,22.766c1.015-1.282-11.41-10.862-12.3-9.741s11.283,11.023,12.3,9.741" fill="#53863c"/>
        <path id="Pfad_125" data-name="Pfad 125" d="M479.786,23.9c1.015-1.282-11.41-10.862-12.3-9.741s11.283,11.023,12.3,9.741" fill="#53863c"/>
        <path id="Pfad_126" data-name="Pfad 126" d="M484.558,7.234c.989,1.249-11.11,10.577-11.975,9.485S483.57,5.986,484.558,7.234" fill="#53863c"/>
        <path id="Pfad_127" data-name="Pfad 127" d="M479.227,5.821c.987,1.248-11.111,10.577-11.976,9.485s10.986-10.733,11.976-9.485" fill="#53863c"/>
        <path id="Pfad_128" data-name="Pfad 128" d="M491.116,15.008c0-3.083-66.673-2.7-66.673,0s66.673,3.083,66.673,0" fill="#19590f"/>
        <path id="Pfad_129" data-name="Pfad 129" d="M475.484,25.37c1.264-1.6-14.2-13.52-15.307-12.124S474.22,26.965,475.484,25.37" fill="#19590f"/>
        <path id="Pfad_130" data-name="Pfad 130" d="M476.717,2.77c1.264,1.595-14.2,13.52-15.307,12.124S475.453,1.175,476.717,2.77" fill="#19590f"/>
        <path id="Pfad_131" data-name="Pfad 131" d="M463.152,26.307c1.264-1.595-14.2-13.52-15.307-12.123S461.888,27.9,463.152,26.307" fill="#19590f"/>
        <path id="Pfad_132" data-name="Pfad 132" d="M464.384,3.708c1.264,1.6-14.2,13.52-15.307,12.124S463.12,2.113,464.384,3.708" fill="#19590f"/>
        <path id="Pfad_133" data-name="Pfad 133" d="M489.227,10.754c.438,1.179-10.93,5.234-11.313,4.2s10.875-5.381,11.313-4.2" fill="#19590f"/>
        <path id="Pfad_134" data-name="Pfad 134" d="M205.409,3.708c-1.264,1.6,14.2,13.52,15.307,12.124S206.673,2.113,205.409,3.708" fill="#09310c"/>
        <path id="Pfad_135" data-name="Pfad 135" d="M217.742,26.307c-1.264-1.595,14.2-13.52,15.307-12.123S219.006,27.9,217.742,26.307" fill="#09310c"/>
        <path id="Pfad_136" data-name="Pfad 136" d="M187.891,19.261c-.438-1.179,10.93-5.233,11.313-4.2s-10.875,5.382-11.313,4.2" fill="#09310c"/>
        <path id="Pfad_137" data-name="Pfad 137" d="M224.844,26.307c-1.264-1.595,14.2-13.52,15.307-12.123S226.108,27.9,224.844,26.307" fill="#19590f"/>
        <path id="Pfad_138" data-name="Pfad 138" d="M223.611,3.708c-1.264,1.6,14.2,13.52,15.307,12.124S224.875,2.113,223.611,3.708" fill="#19590f"/>
        <path id="Pfad_139" data-name="Pfad 139" d="M205.409,26.307c-1.264-1.595,14.2-13.52,15.307-12.123S206.673,27.9,205.409,26.307" fill="#53863c"/>
        <path id="Pfad_140" data-name="Pfad 140" d="M216.509,3.708c-1.264,1.6,14.2,13.52,15.307,12.124S217.773,2.113,216.509,3.708" fill="#53863c"/>
        <path id="Pfad_141" data-name="Pfad 141" d="M230.393,26.307c-1.264-1.595,14.2-13.52,15.307-12.123S231.657,27.9,230.393,26.307" fill="#09310c"/>
        <path id="Pfad_142" data-name="Pfad 142" d="M229.16,3.708c-1.264,1.6,14.2,13.52,15.307,12.124S230.424,2.113,229.16,3.708" fill="#09310c"/>
        <path id="Pfad_143" data-name="Pfad 143" d="M192.73,22.766c-1.015-1.282,11.41-10.862,12.3-9.741s-11.283,11.023-12.3,9.741" fill="#53863c"/>
        <path id="Pfad_144" data-name="Pfad 144" d="M195.878,23.9c-1.015-1.282,11.41-10.862,12.3-9.741s-11.283,11.023-12.3,9.741" fill="#53863c"/>
        <path id="Pfad_145" data-name="Pfad 145" d="M191.1,7.234c-.989,1.249,11.11,10.577,11.975,9.485S192.093,5.986,191.1,7.234" fill="#53863c"/>
        <path id="Pfad_146" data-name="Pfad 146" d="M196.437,5.821c-.988,1.248,11.11,10.577,11.975,9.485S197.426,4.573,196.437,5.821" fill="#53863c"/>
        <path id="Pfad_147" data-name="Pfad 147" d="M184.547,15.008c0-3.083,66.673-2.7,66.673,0s-66.673,3.083-66.673,0" fill="#19590f"/>
        <path id="Pfad_148" data-name="Pfad 148" d="M200.179,25.37c-1.264-1.6,14.2-13.52,15.307-12.124S201.443,26.965,200.179,25.37" fill="#19590f"/>
        <path id="Pfad_149" data-name="Pfad 149" d="M198.946,2.77c-1.264,1.595,14.2,13.52,15.307,12.124S200.21,1.175,198.946,2.77" fill="#19590f"/>
        <path id="Pfad_150" data-name="Pfad 150" d="M212.512,26.307c-1.264-1.595,14.2-13.52,15.307-12.123S213.776,27.9,212.512,26.307" fill="#19590f"/>
        <path id="Pfad_151" data-name="Pfad 151" d="M211.279,3.708c-1.264,1.6,14.2,13.52,15.307,12.124S212.543,2.113,211.279,3.708" fill="#19590f"/>
        <path id="Pfad_152" data-name="Pfad 152" d="M186.436,10.754c-.438,1.179,10.93,5.234,11.313,4.2s-10.875-5.381-11.313-4.2" fill="#19590f"/>
        <path id="Pfad_153" data-name="Pfad 153" d="M168.5,3.708c-1.264,1.6,14.2,13.52,15.307,12.124S169.764,2.113,168.5,3.708" fill="#09310c"/>
        <path id="Pfad_154" data-name="Pfad 154" d="M180.832,26.307c-1.264-1.595,14.2-13.52,15.307-12.123S182.1,27.9,180.832,26.307" fill="#09310c"/>
        <path id="Pfad_155" data-name="Pfad 155" d="M150.981,19.261c-.438-1.179,10.93-5.233,11.313-4.2s-10.875,5.382-11.313,4.2" fill="#09310c"/>
        <path id="Pfad_156" data-name="Pfad 156" d="M187.935,26.307c-1.264-1.595,14.2-13.52,15.307-12.123S189.2,27.9,187.935,26.307" fill="#19590f"/>
        <path id="Pfad_157" data-name="Pfad 157" d="M186.7,3.708c-1.264,1.6,14.2,13.52,15.307,12.124S187.966,2.113,186.7,3.708" fill="#19590f"/>
        <path id="Pfad_158" data-name="Pfad 158" d="M168.5,26.307c-1.264-1.595,14.2-13.52,15.307-12.123S169.764,27.9,168.5,26.307" fill="#53863c"/>
        <path id="Pfad_159" data-name="Pfad 159" d="M179.6,3.708c-1.265,1.6,14.2,13.52,15.306,12.124S180.863,2.113,179.6,3.708" fill="#53863c"/>
        <path id="Pfad_160" data-name="Pfad 160" d="M193.483,26.307c-1.264-1.595,14.2-13.52,15.307-12.123S194.747,27.9,193.483,26.307" fill="#09310c"/>
        <path id="Pfad_161" data-name="Pfad 161" d="M192.251,3.708c-1.264,1.6,14.2,13.52,15.307,12.124S193.515,2.113,192.251,3.708" fill="#09310c"/>
        <path id="Pfad_162" data-name="Pfad 162" d="M155.821,22.766c-1.015-1.282,11.41-10.862,12.3-9.741s-11.283,11.023-12.3,9.741" fill="#53863c"/>
        <path id="Pfad_163" data-name="Pfad 163" d="M158.968,23.9c-1.015-1.282,11.41-10.862,12.3-9.741s-11.283,11.023-12.3,9.741" fill="#53863c"/>
        <path id="Pfad_164" data-name="Pfad 164" d="M154.2,7.234c-.989,1.249,11.11,10.577,11.975,9.485S155.185,5.986,154.2,7.234" fill="#53863c"/>
        <path id="Pfad_165" data-name="Pfad 165" d="M159.527,5.821c-.989,1.248,11.11,10.577,11.975,9.485S160.516,4.573,159.527,5.821" fill="#53863c"/>
        <path id="Pfad_166" data-name="Pfad 166" d="M147.638,15.008c0-3.083,66.673-2.7,66.673,0s-66.673,3.083-66.673,0" fill="#19590f"/>
        <path id="Pfad_167" data-name="Pfad 167" d="M163.27,25.37c-1.264-1.6,14.2-13.52,15.307-12.124S164.534,26.965,163.27,25.37" fill="#19590f"/>
        <path id="Pfad_168" data-name="Pfad 168" d="M162.037,2.77c-1.264,1.595,14.2,13.52,15.307,12.124S163.3,1.175,162.037,2.77" fill="#19590f"/>
        <path id="Pfad_169" data-name="Pfad 169" d="M175.6,26.307c-1.264-1.595,14.2-13.52,15.307-12.123S176.866,27.9,175.6,26.307" fill="#19590f"/>
        <path id="Pfad_170" data-name="Pfad 170" d="M174.369,3.708c-1.264,1.6,14.2,13.52,15.307,12.124S175.633,2.113,174.369,3.708" fill="#19590f"/>
        <path id="Pfad_171" data-name="Pfad 171" d="M149.527,10.754c-.438,1.179,10.93,5.234,11.313,4.2s-10.875-5.381-11.313-4.2" fill="#19590f"/>
        <path id="Pfad_172" data-name="Pfad 172" d="M131.59,3.708c-1.264,1.6,14.2,13.52,15.307,12.124S132.854,2.113,131.59,3.708" fill="#09310c"/>
        <path id="Pfad_173" data-name="Pfad 173" d="M143.923,26.307c-1.264-1.595,14.2-13.52,15.307-12.123S145.187,27.9,143.923,26.307" fill="#09310c"/>
        <path id="Pfad_174" data-name="Pfad 174" d="M114.072,19.261c-.438-1.179,10.93-5.233,11.313-4.2s-10.875,5.382-11.313,4.2" fill="#09310c"/>
        <path id="Pfad_175" data-name="Pfad 175" d="M151.025,26.307c-1.264-1.595,14.2-13.52,15.307-12.123S152.289,27.9,151.025,26.307" fill="#19590f"/>
        <path id="Pfad_176" data-name="Pfad 176" d="M149.793,3.708c-1.264,1.6,14.2,13.52,15.307,12.124S151.057,2.113,149.793,3.708" fill="#19590f"/>
        <path id="Pfad_177" data-name="Pfad 177" d="M131.59,26.307c-1.264-1.595,14.2-13.52,15.307-12.123S132.854,27.9,131.59,26.307" fill="#53863c"/>
        <path id="Pfad_178" data-name="Pfad 178" d="M142.69,3.708c-1.264,1.6,14.2,13.52,15.307,12.124S143.954,2.113,142.69,3.708" fill="#53863c"/>
        <path id="Pfad_179" data-name="Pfad 179" d="M156.574,26.307c-1.264-1.595,14.2-13.52,15.307-12.123S157.838,27.9,156.574,26.307" fill="#09310c"/>
        <path id="Pfad_180" data-name="Pfad 180" d="M155.341,3.708c-1.264,1.6,14.2,13.52,15.307,12.124S156.6,2.113,155.341,3.708" fill="#09310c"/>
        <path id="Pfad_181" data-name="Pfad 181" d="M118.911,22.766c-1.015-1.282,11.41-10.862,12.3-9.741s-11.283,11.023-12.3,9.741" fill="#53863c"/>
        <path id="Pfad_182" data-name="Pfad 182" d="M122.059,23.9c-1.015-1.282,11.41-10.862,12.3-9.741s-11.283,11.023-12.3,9.741" fill="#53863c"/>
        <path id="Pfad_183" data-name="Pfad 183" d="M117.287,7.234c-.989,1.249,11.11,10.577,11.975,9.485S118.276,5.986,117.287,7.234" fill="#53863c"/>
        <path id="Pfad_184" data-name="Pfad 184" d="M122.618,5.821c-.989,1.248,11.11,10.577,11.975,9.485S123.606,4.573,122.618,5.821" fill="#53863c"/>
        <path id="Pfad_185" data-name="Pfad 185" d="M110.728,15.008c0-3.083,66.673-2.7,66.673,0s-66.673,3.083-66.673,0" fill="#19590f"/>
        <path id="Pfad_186" data-name="Pfad 186" d="M126.36,25.37c-1.264-1.6,14.2-13.52,15.307-12.124S127.624,26.965,126.36,25.37" fill="#19590f"/>
        <path id="Pfad_187" data-name="Pfad 187" d="M125.127,2.77c-1.264,1.595,14.2,13.52,15.307,12.124S126.391,1.175,125.127,2.77" fill="#19590f"/>
        <path id="Pfad_188" data-name="Pfad 188" d="M138.693,26.307c-1.264-1.595,14.2-13.52,15.307-12.123S139.957,27.9,138.693,26.307" fill="#19590f"/>
        <path id="Pfad_189" data-name="Pfad 189" d="M137.46,3.708c-1.264,1.6,14.2,13.52,15.307,12.124S138.724,2.113,137.46,3.708" fill="#19590f"/>
        <path id="Pfad_190" data-name="Pfad 190" d="M112.618,10.754c-.439,1.179,10.93,5.234,11.312,4.2s-10.875-5.381-11.312-4.2" fill="#19590f"/>
        <path id="Pfad_191" data-name="Pfad 191" d="M94.681,3.708c-1.264,1.6,14.2,13.52,15.307,12.124S95.945,2.113,94.681,3.708" fill="#09310c"/>
        <path id="Pfad_192" data-name="Pfad 192" d="M107.013,26.307c-1.264-1.595,14.2-13.52,15.307-12.123S108.277,27.9,107.013,26.307" fill="#09310c"/>
        <path id="Pfad_193" data-name="Pfad 193" d="M77.162,19.261c-.438-1.179,10.93-5.233,11.313-4.2s-10.875,5.382-11.313,4.2" fill="#09310c"/>
        <path id="Pfad_194" data-name="Pfad 194" d="M114.116,26.307c-1.264-1.595,14.2-13.52,15.307-12.123S115.38,27.9,114.116,26.307" fill="#19590f"/>
        <path id="Pfad_195" data-name="Pfad 195" d="M112.883,3.708c-1.264,1.6,14.2,13.52,15.307,12.124S114.147,2.113,112.883,3.708" fill="#19590f"/>
        <path id="Pfad_196" data-name="Pfad 196" d="M94.681,26.307c-1.264-1.595,14.2-13.52,15.307-12.123S95.945,27.9,94.681,26.307" fill="#53863c"/>
        <path id="Pfad_197" data-name="Pfad 197" d="M105.781,3.708c-1.264,1.6,14.2,13.52,15.307,12.124S107.045,2.113,105.781,3.708" fill="#53863c"/>
        <path id="Pfad_198" data-name="Pfad 198" d="M119.664,26.307c-1.264-1.595,14.2-13.52,15.307-12.123S120.928,27.9,119.664,26.307" fill="#09310c"/>
        <path id="Pfad_199" data-name="Pfad 199" d="M118.432,3.708c-1.264,1.6,14.2,13.52,15.307,12.124S119.7,2.113,118.432,3.708" fill="#09310c"/>
        <path id="Pfad_200" data-name="Pfad 200" d="M82,22.766c-1.015-1.282,11.41-10.862,12.3-9.741S83.017,24.048,82,22.766" fill="#53863c"/>
        <path id="Pfad_201" data-name="Pfad 201" d="M85.149,23.9c-1.015-1.282,11.41-10.862,12.3-9.741S86.164,25.184,85.149,23.9" fill="#53863c"/>
        <path id="Pfad_202" data-name="Pfad 202" d="M80.377,7.234c-.989,1.249,11.11,10.577,11.975,9.485S81.366,5.986,80.377,7.234" fill="#53863c"/>
        <path id="Pfad_203" data-name="Pfad 203" d="M85.708,5.821c-.989,1.248,11.11,10.577,11.975,9.485S86.7,4.573,85.708,5.821" fill="#53863c"/>
        <path id="Pfad_204" data-name="Pfad 204" d="M73.819,15.008c0-3.083,66.673-2.7,66.673,0s-66.673,3.083-66.673,0" fill="#19590f"/>
        <path id="Pfad_205" data-name="Pfad 205" d="M89.451,25.37c-1.264-1.6,14.2-13.52,15.307-12.124S90.715,26.965,89.451,25.37" fill="#19590f"/>
        <path id="Pfad_206" data-name="Pfad 206" d="M88.218,2.77c-1.264,1.595,14.2,13.52,15.307,12.124S89.482,1.175,88.218,2.77" fill="#19590f"/>
        <path id="Pfad_207" data-name="Pfad 207" d="M101.783,26.307c-1.264-1.595,14.2-13.52,15.307-12.123S103.047,27.9,101.783,26.307" fill="#19590f"/>
        <path id="Pfad_208" data-name="Pfad 208" d="M100.551,3.708c-1.264,1.6,14.2,13.52,15.307,12.124S101.815,2.113,100.551,3.708" fill="#19590f"/>
        <path id="Pfad_209" data-name="Pfad 209" d="M75.708,10.754c-.438,1.179,10.93,5.234,11.313,4.2s-10.875-5.381-11.313-4.2" fill="#19590f"/>
        <path id="Pfad_210" data-name="Pfad 210" d="M57.771,3.708c-1.264,1.6,14.2,13.52,15.307,12.124S59.035,2.113,57.771,3.708" fill="#09310c"/>
        <path id="Pfad_211" data-name="Pfad 211" d="M70.1,26.307c-1.264-1.595,14.2-13.52,15.307-12.123S71.368,27.9,70.1,26.307" fill="#09310c"/>
        <path id="Pfad_212" data-name="Pfad 212" d="M40.253,19.261c-.438-1.179,10.93-5.233,11.313-4.2s-10.875,5.382-11.313,4.2" fill="#09310c"/>
        <path id="Pfad_213" data-name="Pfad 213" d="M77.206,26.307c-1.264-1.595,14.2-13.52,15.307-12.123S78.47,27.9,77.206,26.307" fill="#19590f"/>
        <path id="Pfad_214" data-name="Pfad 214" d="M75.974,3.708c-1.264,1.6,14.2,13.52,15.307,12.124S77.238,2.113,75.974,3.708" fill="#19590f"/>
        <path id="Pfad_215" data-name="Pfad 215" d="M57.771,26.307c-1.264-1.595,14.2-13.52,15.307-12.123S59.035,27.9,57.771,26.307" fill="#53863c"/>
        <path id="Pfad_216" data-name="Pfad 216" d="M68.871,3.708c-1.264,1.6,14.2,13.52,15.307,12.124S70.135,2.113,68.871,3.708" fill="#53863c"/>
        <path id="Pfad_217" data-name="Pfad 217" d="M82.755,26.307c-1.264-1.595,14.2-13.52,15.307-12.123S84.019,27.9,82.755,26.307" fill="#09310c"/>
        <path id="Pfad_218" data-name="Pfad 218" d="M81.522,3.708c-1.264,1.6,14.2,13.52,15.307,12.124S82.786,2.113,81.522,3.708" fill="#09310c"/>
        <path id="Pfad_219" data-name="Pfad 219" d="M45.092,22.766C44.077,21.484,56.5,11.9,57.39,13.025s-11.283,11.023-12.3,9.741" fill="#53863c"/>
        <path id="Pfad_220" data-name="Pfad 220" d="M48.24,23.9c-1.015-1.282,11.41-10.862,12.3-9.741S49.255,25.184,48.24,23.9" fill="#53863c"/>
        <path id="Pfad_221" data-name="Pfad 221" d="M43.468,7.234c-.989,1.249,11.11,10.577,11.975,9.485S44.457,5.986,43.468,7.234" fill="#53863c"/>
        <path id="Pfad_222" data-name="Pfad 222" d="M48.8,5.821C47.81,7.069,59.909,16.4,60.774,15.306S49.788,4.573,48.8,5.821" fill="#53863c"/>
        <path id="Pfad_223" data-name="Pfad 223" d="M36.91,15.008c0-3.083,66.672-2.7,66.672,0s-66.672,3.083-66.672,0" fill="#19590f"/>
        <path id="Pfad_224" data-name="Pfad 224" d="M52.541,25.37c-1.264-1.6,14.2-13.52,15.307-12.124S53.805,26.965,52.541,25.37" fill="#19590f"/>
        <path id="Pfad_225" data-name="Pfad 225" d="M51.309,2.77c-1.264,1.595,14.2,13.52,15.307,12.124S52.573,1.175,51.309,2.77" fill="#19590f"/>
        <path id="Pfad_226" data-name="Pfad 226" d="M64.874,26.307c-1.264-1.595,14.2-13.52,15.307-12.123S66.138,27.9,64.874,26.307" fill="#19590f"/>
        <path id="Pfad_227" data-name="Pfad 227" d="M63.641,3.708c-1.264,1.6,14.2,13.52,15.307,12.124S64.9,2.113,63.641,3.708" fill="#19590f"/>
        <path id="Pfad_228" data-name="Pfad 228" d="M38.8,10.754c-.438,1.179,10.93,5.234,11.313,4.2S39.237,9.575,38.8,10.754" fill="#19590f"/>
        <path id="Pfad_229" data-name="Pfad 229" d="M20.862,3.708c-1.264,1.6,14.2,13.52,15.307,12.124S22.126,2.113,20.862,3.708" fill="#09310c"/>
        <path id="Pfad_230" data-name="Pfad 230" d="M33.194,26.307C31.93,24.712,47.4,12.787,48.5,14.184S34.458,27.9,33.194,26.307" fill="#09310c"/>
        <path id="Pfad_231" data-name="Pfad 231" d="M3.344,19.261c-.438-1.179,10.93-5.233,11.313-4.2s-10.875,5.382-11.313,4.2" fill="#09310c"/>
        <path id="Pfad_232" data-name="Pfad 232" d="M40.3,26.307C39.033,24.712,54.5,12.787,55.6,14.184S41.561,27.9,40.3,26.307" fill="#19590f"/>
        <path id="Pfad_233" data-name="Pfad 233" d="M39.064,3.708c-1.264,1.6,14.2,13.52,15.307,12.124S40.328,2.113,39.064,3.708" fill="#19590f"/>
        <path id="Pfad_234" data-name="Pfad 234" d="M20.862,26.307c-1.264-1.595,14.2-13.52,15.307-12.123S22.126,27.9,20.862,26.307" fill="#53863c"/>
        <path id="Pfad_235" data-name="Pfad 235" d="M31.962,3.708c-1.264,1.6,14.2,13.52,15.307,12.124S33.226,2.113,31.962,3.708" fill="#53863c"/>
        <path id="Pfad_236" data-name="Pfad 236" d="M45.846,26.307c-1.264-1.595,14.2-13.52,15.307-12.123S47.11,27.9,45.846,26.307" fill="#09310c"/>
        <path id="Pfad_237" data-name="Pfad 237" d="M44.613,3.708c-1.264,1.6,14.2,13.52,15.307,12.124S45.877,2.113,44.613,3.708" fill="#09310c"/>
        <path id="Pfad_238" data-name="Pfad 238" d="M8.183,22.766c-1.015-1.282,11.41-10.862,12.3-9.741S9.2,24.048,8.183,22.766" fill="#53863c"/>
        <path id="Pfad_239" data-name="Pfad 239" d="M11.33,23.9c-1.015-1.282,11.41-10.862,12.3-9.741S12.345,25.184,11.33,23.9" fill="#53863c"/>
        <path id="Pfad_240" data-name="Pfad 240" d="M6.558,7.234c-.989,1.249,11.11,10.577,11.975,9.485S7.546,5.986,6.558,7.234" fill="#53863c"/>
        <path id="Pfad_241" data-name="Pfad 241" d="M11.889,5.821C10.9,7.069,23,16.4,23.865,15.306S12.878,4.573,11.889,5.821" fill="#53863c"/>
        <path id="Pfad_242" data-name="Pfad 242" d="M0,15.008c0-3.083,66.673-2.7,66.673,0S0,18.091,0,15.008" fill="#19590f"/>
        <path id="Pfad_243" data-name="Pfad 243" d="M15.632,25.37c-1.264-1.6,14.2-13.52,15.307-12.124S16.9,26.965,15.632,25.37" fill="#19590f"/>
        <path id="Pfad_244" data-name="Pfad 244" d="M14.4,2.77C13.135,4.365,28.6,16.29,29.706,14.894S15.663,1.175,14.4,2.77" fill="#19590f"/>
        <path id="Pfad_245" data-name="Pfad 245" d="M27.964,26.307c-1.264-1.595,14.2-13.52,15.307-12.123S29.228,27.9,27.964,26.307" fill="#19590f"/>
        <path id="Pfad_246" data-name="Pfad 246" d="M26.732,3.708c-1.264,1.6,14.2,13.52,15.307,12.124S28,2.113,26.732,3.708" fill="#19590f"/>
        <path id="Pfad_247" data-name="Pfad 247" d="M1.889,10.754c-.438,1.179,10.93,5.234,11.313,4.2S2.327,9.575,1.889,10.754" fill="#19590f"/>
        <path id="Pfad_248" data-name="Pfad 248" d="M236.215,28.89q-.229.632-.46,1.264a.515.515,0,0,0-.492.221.6.6,0,0,0-.014.508.981.981,0,0,0,.329.4,1.043,1.043,0,0,0,.585.222.681.681,0,0,0,.558-.251.506.506,0,0,0,.015-.593,1.547,1.547,0,0,0-.432-.436c.148-.349.314-.7.493-1.037" fill="#cd8e00"/>
        <path id="Pfad_249" data-name="Pfad 249" d="M245.907,29.01c.593-1.037-2.557-3.826-1.654-5.86s2.44-6.215-1.764-8-6.146,2.225-6.983,4.286-5.031,1.731-5.365,2.878,1.1,5.077,6.2,7.3c5.142,2.123,8.975.422,9.563-.606" fill="#ffb81d"/>
        <path id="Pfad_250" data-name="Pfad 250" d="M236.481,29.68c-.048-.02-.09-.043-.137-.064s-.093-.034-.141-.054Z" fill="#ff7d5f"/>
        <path id="Pfad_251" data-name="Pfad 251" d="M244.956,19.626c-.063,1.748-1.54,3.319-1.23,5.04.237,1.31,1.486,2.419,1.246,3.728a2.283,2.283,0,0,1-1.5,1.619,5.246,5.246,0,0,1-2.283.194c-.3-.026-.685-.132-.725-.436a.514.514,0,0,1,.389-.5,3.625,3.625,0,0,1,.677-.086,1.762,1.762,0,0,0,1.349-2.276c-.289-.746-1.086-1.239-1.266-2.019a2.646,2.646,0,0,1,.642-2,3.7,3.7,0,0,0,.891-1.938,3.34,3.34,0,0,0-.423-1.436c-.364-.779-.828-2.449.582-2.411,1.184.032,1.688,1.541,1.653,2.52" fill="#cd8e00"/>
        <path id="Pfad_252" data-name="Pfad 252" d="M241.814,15.237a6.036,6.036,0,0,1,.522-2.437,2.4,2.4,0,0,1,.914-1.154,1.114,1.114,0,0,1,1.371.146,1.557,1.557,0,0,1,.188,1.291,7.914,7.914,0,0,1-1.226,3.018c-.1.015-.195-.108-.256-.193.133-.6.315-1.188.449-1.788a1.643,1.643,0,0,0,.05-.719.559.559,0,0,0-.494-.459.548.548,0,0,0-.441.274,1.555,1.555,0,0,0-.181.509q-.176.769-.313,1.545" fill="#ffb81d"/>
        <path id="Pfad_253" data-name="Pfad 253" d="M254.616,29.58l.643,1.181a.517.517,0,0,0-.159.515.6.6,0,0,0,.372.347.982.982,0,0,0,.519.018,1.032,1.032,0,0,0,.553-.292.676.676,0,0,0,.181-.584.505.505,0,0,0-.434-.4,1.544,1.544,0,0,0-.614.036c-.163-.342-.318-.7-.451-1.056" fill="#cd8e00"/>
        <path id="Pfad_254" data-name="Pfad 254" d="M261.116,22.389c-.386-1.131-4.56-.612-5.489-2.634s-3.048-5.942-7.168-3.969-2.4,6.081-1.4,8.072-2.028,4.919-1.389,5.928,4.538,2.529,9.58.177c4.994-2.453,6.252-6.453,5.87-7.574" fill="#ffb81d"/>
        <path id="Pfad_255" data-name="Pfad 255" d="M255.385,29.9c-.047.022-.092.039-.138.06s-.087.048-.134.07Z" fill="#ff7d5f"/>
        <path id="Pfad_256" data-name="Pfad 256" d="M253.449,16.9c1.27,1.2,1.471,3.35,2.967,4.256,1.139.689,2.8.486,3.62,1.531a2.279,2.279,0,0,1,.221,2.2,5.233,5.233,0,0,1-1.364,1.841c-.222.211-.553.426-.806.255a.512.512,0,0,1-.116-.62,3.645,3.645,0,0,1,.383-.565,1.762,1.762,0,0,0-.815-2.517c-.751-.276-1.648-.005-2.352-.386a2.648,2.648,0,0,1-1.077-1.806,3.7,3.7,0,0,0-.864-1.95,3.357,3.357,0,0,0-1.356-.632c-.826-.242-2.385-1-1.424-2.031.806-.867,2.272-.247,2.983.427" fill="#cd8e00"/>
        <path id="Pfad_257" data-name="Pfad 257" d="M248.079,16.35a6.049,6.049,0,0,1-1.483-2,2.408,2.408,0,0,1-.261-1.449,1.113,1.113,0,0,1,1.016-.932,1.557,1.557,0,0,1,1.093.713,7.906,7.906,0,0,1,1.453,2.915c-.057.088-.211.075-.314.065-.362-.5-.683-1.022-1.044-1.519a1.648,1.648,0,0,0-.507-.514.56.56,0,0,0-.671.067.554.554,0,0,0-.086.513,1.577,1.577,0,0,0,.262.472q.462.639.952,1.257" fill="#ffb81d"/>
        <path id="Pfad_258" data-name="Pfad 258" d="M272.427,1.511c-2.42-4.7-19,2.835-24.138,5.312-.848-2.042-2.881-3.843-4.706-1.737a4.111,4.111,0,0,0-.878,1.871c-4.774-2.318-21.947-10.234-24.413-5.446-2.87,5.569-.07,23.662,4.38,24.151,4.091.45,18.634-11.5,20.951-13.423a5.918,5.918,0,0,0,1.047,1.418,2.044,2.044,0,0,0,2.149.646,2.23,2.23,0,0,0,1.015-1.454c3.755,3.083,16.437,13.228,20.213,12.813,4.449-.489,7.25-18.582,4.38-24.151" fill="#d40e14"/>
        <path id="Pfad_259" data-name="Pfad 259" d="M243.295,8.058S222.421-1.2,219.823,2.434s23.472,5.624,23.472,5.624" fill="#8c0004"/>
        <path id="Pfad_260" data-name="Pfad 260" d="M247.423,8.058S268.3-1.2,270.895,2.434s-23.472,5.624-23.472,5.624" fill="#8c0004"/>
        <path id="Pfad_261" data-name="Pfad 261" d="M242.868,8.669q.215,1.193.428,2.384a81.675,81.675,0,0,1-8.711,6.4,3.954,3.954,0,0,1-2.187.746c-.781-.048-1.571-.729-1.44-1.5a2.073,2.073,0,0,1,.735-1.084,32.791,32.791,0,0,1,4.04-3.22c.288-.194.619-.518.46-.827a.724.724,0,0,0-.53-.292l-3.057-.656a3.667,3.667,0,0,1-1.4-.512,1.246,1.246,0,0,1-.54-1.3c.229-.741,1.206-.87,1.982-.862,3.368.036,6.857.7,10.225.731" fill="#8c0004"/>
        <path id="Pfad_262" data-name="Pfad 262" d="M248.592,8.669q-.214,1.193-.428,2.384a81.675,81.675,0,0,0,8.711,6.4,3.954,3.954,0,0,0,2.187.746c.781-.048,1.571-.729,1.44-1.5a2.073,2.073,0,0,0-.735-1.084,32.725,32.725,0,0,0-4.041-3.22c-.287-.194-.618-.518-.459-.827a.725.725,0,0,1,.53-.292l3.057-.656a3.667,3.667,0,0,0,1.4-.512,1.245,1.245,0,0,0,.54-1.3c-.229-.741-1.206-.87-1.982-.862-3.368.036-6.857.7-10.225.731" fill="#8c0004"/>
        <path id="Pfad_263" data-name="Pfad 263" d="M244.181,11.986a2.791,2.791,0,0,0,1.185,1.261,1.574,1.574,0,0,0,1.66-.123,2.2,2.2,0,0,0,.638-1.244,8.315,8.315,0,0,0,.206-2.306c-.021-.4-.158-.906-.558-.971s-.683.354-.827.725-.31.813-.7.907a.882.882,0,0,1-.852-.416c-.2-.27-.322-.592-.54-.848-.7-.822-.971.041-.884.692a7.042,7.042,0,0,0,.669,2.323" fill="#8c0004"/>
      </g>
    </g>
  </g>
</svg>
